<svg width="21" height="21" viewBox="0 0 21 21" fill="none" xmlns="http://www.w3.org/2000/svg">
<g clip-path="url(#clip0_383_11817)">
<path d="M11.253 16.8407H13.8277L13.5969 17.0715L13.5531 17.1154L13.5969 17.1592L13.9652 17.5275L14.0091 17.5714L14.053 17.5275L14.8342 16.7462C14.8972 16.6833 14.9287 16.6007 14.9287 16.5182C14.9287 16.4358 14.8972 16.3532 14.8342 16.2902L14.053 15.509L14.0091 15.4651L13.9652 15.509L13.5969 15.8772L13.5531 15.9211L13.5969 15.965L13.8277 16.1958H11.253C11.0993 15.3099 10.3272 14.6333 9.39787 14.6333C8.35855 14.6333 7.5129 15.4788 7.5129 16.5182C7.5129 17.5577 8.35855 18.4032 9.39787 18.4032C10.3272 18.4032 11.0993 17.7266 11.253 16.8407ZM9.39787 15.2782C10.0815 15.2782 10.6379 15.8346 10.6379 16.5182C10.6379 17.2019 10.0815 17.7583 9.39787 17.7583C8.71421 17.7583 8.15784 17.2019 8.15784 16.5182C8.15784 15.8346 8.71421 15.2782 9.39787 15.2782Z" fill="#323232" stroke="#323232" stroke-width="0.124109"/>
<path d="M16.6901 18.4032C17.7294 18.4032 18.5751 17.5577 18.5751 16.5182C18.5751 15.4788 17.7294 14.6333 16.6901 14.6333C15.6508 14.6333 14.8051 15.4788 14.8051 16.5182C14.8051 17.5577 15.6508 18.4032 16.6901 18.4032ZM16.6901 15.2782C17.3738 15.2782 17.9301 15.8346 17.9301 16.5182C17.9301 17.2019 17.3738 17.7583 16.6901 17.7583C16.0064 17.7583 15.4501 17.2019 15.4501 16.5182C15.4501 15.8346 16.0064 15.2782 16.6901 15.2782Z" fill="#323232" stroke="#323232" stroke-width="0.124109"/>
<path d="M6.14339 16.8405H6.53679L6.30602 17.0713L6.26214 17.1152L6.30602 17.1591L6.67426 17.5273L6.71814 17.5712L6.76202 17.5273L7.54327 16.7461C7.60623 16.6831 7.63774 16.6005 7.63774 16.5181C7.63774 16.4356 7.60623 16.353 7.54327 16.2901L6.76202 15.5088L6.71814 15.4649L6.67426 15.5088L6.30602 15.8771L6.26214 15.9209L6.30602 15.9648L6.53679 16.1956H6.14339C4.66984 16.1956 3.47107 14.9967 3.47107 13.5233C3.47107 12.0498 4.66984 10.851 6.14339 10.851H6.50185C6.65547 11.7369 7.42758 12.4135 8.35693 12.4135C9.39625 12.4135 10.2419 11.5679 10.2419 10.5285C10.2419 9.48904 9.39625 8.64351 8.35693 8.64351C7.42758 8.64351 6.65547 9.32012 6.50185 10.206H6.14339C4.31418 10.206 2.82613 11.6941 2.82613 13.5233C2.82613 15.3525 4.31418 16.8405 6.14339 16.8405ZM8.35693 11.7685C7.67328 11.7685 7.1169 11.2121 7.1169 10.5285C7.1169 9.84483 7.67328 9.28845 8.35693 9.28845C9.04059 9.28845 9.59696 9.84483 9.59696 10.5285C9.59696 11.2121 9.04059 11.7685 8.35693 11.7685Z" fill="#323232" stroke="#323232" stroke-width="0.124109"/>
<path d="M9.36618 3.52973L9.32231 3.48585L9.27843 3.52973L8.91018 3.89797L8.8663 3.94185L8.91018 3.98573L9.14096 4.21651H6.5662C6.41258 3.33061 5.64045 2.65401 4.7111 2.65401C3.67178 2.65401 2.82613 3.49953 2.82613 4.53898C2.82613 5.57843 3.67178 6.42395 4.7111 6.42395C5.64045 6.42395 6.41258 5.74735 6.5662 4.86145H9.14096L8.91018 5.09223L8.8663 5.13611L8.91018 5.17999L9.27843 5.54823L9.32231 5.59211L9.36618 5.54823L10.1474 4.76698C10.2104 4.70403 10.2419 4.62141 10.2419 4.53898C10.2419 4.45655 10.2104 4.37394 10.1474 4.31098L9.36618 3.52973ZM4.7111 5.77901C4.02744 5.77901 3.47107 5.22264 3.47107 4.53898C3.47107 3.85533 4.02744 3.29895 4.7111 3.29895C5.39476 3.29895 5.95113 3.85533 5.95113 4.53898C5.95113 5.22264 5.39476 5.77901 4.7111 5.77901Z" fill="#323232" stroke="#323232" stroke-width="0.124109"/>
<path d="M15.2573 10.2061H11.2181L11.4489 9.97531L11.4927 9.93144L11.4489 9.88756L11.0806 9.51931L11.0367 9.47543L10.9929 9.51931L10.2116 10.3006C10.1487 10.3635 10.1171 10.4461 10.1171 10.5286C10.1171 10.611 10.1487 10.6936 10.2116 10.7566L10.9929 11.5378L11.0367 11.5817L11.0806 11.5378L11.4489 11.1696L11.4927 11.1257L11.4489 11.0818L11.2181 10.851H15.2573C17.0865 10.851 18.5746 9.36299 18.5746 7.53377C18.5746 5.70456 17.0865 4.21651 15.2573 4.21651H13.8572C13.7036 3.33061 12.9315 2.65401 12.0021 2.65401C10.9628 2.65401 10.1171 3.49953 10.1171 4.53898C10.1171 5.57843 10.9628 6.42395 12.0021 6.42395C12.9315 6.42395 13.7036 5.74735 13.8572 4.86145H15.2573C16.7309 4.86145 17.9296 6.06035 17.9296 7.53377C17.9296 9.0072 16.7309 10.2061 15.2573 10.2061ZM12.0021 5.77901C11.3185 5.77901 10.7621 5.22264 10.7621 4.53898C10.7621 3.85533 11.3185 3.29895 12.0021 3.29895C12.6858 3.29895 13.2421 3.85533 13.2421 4.53898C13.2421 5.22264 12.6858 5.77901 12.0021 5.77901Z" fill="#323232" stroke="#323232" stroke-width="0.124109"/>
</g>
<defs>
<clipPath id="clip0_383_11817">
<rect width="16.6667" height="16.6667" fill="white" transform="translate(2.36719 2.19507)"/>
</clipPath>
</defs>
</svg>
